<svg id="Layer_1" data-name="Layer 1" xmlns="http://www.w3.org/2000/svg" xmlns:xlink="http://www.w3.org/1999/xlink" viewBox="0 0 595.28 595.28"><defs><style>.cls-1,.cls-4{fill:none;}.cls-2{clip-path:url(#clip-path);}.cls-3{fill:#b4b4ba;}.cls-4{stroke:#fff;stroke-miterlimit:10;stroke-width:0.3px;}</style><clipPath id="clip-path"><rect class="cls-1" x="99.92" y="116.83" width="361.03" height="361.62"/></clipPath></defs><title>AGUILA ICONS</title><g class="cls-2"><path class="cls-3" d="M290.36,321.33l.54-.88c-3.34-4.6-6.67-9.19-10.4-14.3-3.72,5.17-7.05,9.78-10.38,14.39.18.26.35.53.52.79Zm72-46.38c-18.51-5.87-60.68,7.63-72.63,22.82,4.44,6.61,8.76,13.12,13.24,19.53a3.13,3.13,0,0,0,2.72.7c16.56-4.29,30.61-12.95,42.7-24.92a88.6,88.6,0,0,0,14-18.13m-90.86,22.64c-22.24-20.06-52.09-26.32-72.9-22.65a86.56,86.56,0,0,0,5.06,7.44,160.7,160.7,0,0,0,12,13.58,90.71,90.71,0,0,0,39.55,22.11,3.28,3.28,0,0,0,2.91-.92c4.5-6.39,8.83-12.89,13.33-19.56m9.21,135c23.9-30,30-62.56,16.89-98.43-.56-1.56-1.34-1.83-2.92-1.58a90,90,0,0,1-27.56.09c-2.46-.36-3.24.32-4,2.37a95.52,95.52,0,0,0,17.59,97.55M185.8,276.9C146.49,286.54,116,321,113.56,363.65a95.55,95.55,0,0,0,56.69,93.18c37.12,16.37,77.7,6.51,101.39-15.69-27.35-33.43-34.06-70.47-19.6-111.33-29.19-8.71-51.39-26.16-66.24-52.91m103.43,164c25.34,23.89,67.16,32.21,102.61,15.52,40.28-19,61.55-59.37,54.26-103s-41.83-70.37-71-76.31a108.32,108.32,0,0,1-27.65,33,112.15,112.15,0,0,1-38.68,19.74,107,107,0,0,1,5.93,58.46c-3.52,19.95-12.26,37.41-25.48,52.62m-8.82-151.54c.55-.43.93-.69,1.27-1a102.77,102.77,0,0,1,38.11-21.59,99.41,99.41,0,0,1,45.53-3.94c2.13.33,3.37,0,4.29-2.49a96,96,0,0,0,4.91-50.62c-3-17.71-10.21-33.59-22.36-46.78-25-27.08-55.82-37.76-92-30.14-28.7,6-50.06,22.67-64,48.56-9.47,17.61-12.66,36.5-10.38,56.31a87.46,87.46,0,0,0,6.9,25.5,102.42,102.42,0,0,1,46.71,3,104.88,104.88,0,0,1,41,23.15M272,118.15h16.8c.71.18,1.41.42,2.13.54,5.39.92,10.91,1.41,16.18,2.8,26.49,7,47.66,21.75,62.76,44.63,16.43,24.88,21.71,52.19,15.8,81.49-1.21,6.06-3.16,12-4.81,18.12l1.1.49c7.94,3.37,16.3,6,23.74,10.27,26.29,15.06,43.05,37.66,50.57,67,1.47,5.74,2.26,11.66,3.36,17.5v17.38c-.94,5.29-1.49,10.71-2.89,15.88-11.8,43.25-39.43,70.28-83.1,80.57-4.68,1.1-9.51,1.54-14.26,2.27H344.83a17.47,17.47,0,0,0-2.42-.53,101.41,101.41,0,0,1-43.29-13.68c-6.52-3.88-12.61-8.49-19-12.87-.29.23-.88.68-1.44,1.17A104.54,104.54,0,0,1,234.36,474c-5.32,1.28-10.74,2.1-16.11,3.12H200.33a10.42,10.42,0,0,0-1.82-.53,106.3,106.3,0,0,1-37.88-10.82c-42-20.94-66.22-68-57.69-114.22,7.49-40.59,31.12-68.29,69.63-83.16,2.57-1,5.21-1.82,8-2.78-.47-1.3-.88-2.42-1.27-3.55a105.63,105.63,0,0,1-5.05-52.64c4.22-25.9,16.11-47.65,35.92-65a103.55,103.55,0,0,1,48.74-24.1c4.36-.85,8.76-1.49,13.13-2.22"/><path class="cls-4" d="M290.36,321.33l.54-.88c-3.34-4.6-6.67-9.19-10.4-14.3-3.72,5.17-7.05,9.78-10.38,14.39.18.26.35.53.52.79Zm72-46.38c-18.51-5.87-60.68,7.63-72.63,22.82,4.44,6.61,8.76,13.12,13.24,19.53a3.13,3.13,0,0,0,2.72.7c16.56-4.29,30.61-12.95,42.7-24.92A88.6,88.6,0,0,0,362.35,275Zm-90.86,22.64c-22.24-20.06-52.09-26.32-72.9-22.65a86.56,86.56,0,0,0,5.06,7.44,160.7,160.7,0,0,0,12,13.58,90.71,90.71,0,0,0,39.55,22.11,3.28,3.28,0,0,0,2.91-.92C262.66,310.76,267,304.26,271.49,297.59Zm9.21,135c23.9-30,30-62.56,16.89-98.43-.56-1.56-1.34-1.83-2.92-1.58a90,90,0,0,1-27.56.09c-2.46-.36-3.24.32-4,2.37a95.52,95.52,0,0,0,17.59,97.55ZM185.8,276.9C146.49,286.54,116,321,113.56,363.65a95.55,95.55,0,0,0,56.69,93.18c37.12,16.37,77.7,6.51,101.39-15.69-27.35-33.43-34.06-70.47-19.6-111.33C222.85,321.1,200.65,303.65,185.8,276.9Zm103.43,164c25.34,23.89,67.16,32.21,102.61,15.52,40.28-19,61.55-59.37,54.26-103s-41.83-70.37-71-76.31a108.32,108.32,0,0,1-27.65,33,112.15,112.15,0,0,1-38.68,19.74,107,107,0,0,1,5.93,58.46C311.19,408.25,302.45,425.71,289.23,440.92Zm-8.82-151.54c.55-.43.93-.69,1.27-1a102.77,102.77,0,0,1,38.11-21.59,99.41,99.41,0,0,1,45.53-3.94c2.13.33,3.37,0,4.29-2.49a96,96,0,0,0,4.91-50.62c-3-17.71-10.21-33.59-22.36-46.78-25-27.08-55.82-37.76-92-30.14-28.7,6-50.06,22.67-64,48.56-9.47,17.61-12.66,36.5-10.38,56.31a87.46,87.46,0,0,0,6.9,25.5,102.42,102.42,0,0,1,46.71,3A104.88,104.88,0,0,1,280.41,289.38ZM272,118.15h16.8c.71.18,1.41.42,2.13.54,5.39.92,10.91,1.41,16.18,2.8,26.49,7,47.66,21.75,62.76,44.63,16.43,24.88,21.71,52.19,15.8,81.49-1.21,6.06-3.16,12-4.81,18.12l1.1.49c7.94,3.37,16.3,6,23.74,10.27,26.29,15.06,43.05,37.66,50.57,67,1.47,5.74,2.26,11.66,3.36,17.5v17.38c-.94,5.29-1.49,10.71-2.89,15.88-11.8,43.25-39.43,70.28-83.1,80.57-4.68,1.1-9.51,1.54-14.26,2.27H344.83a17.47,17.47,0,0,0-2.42-.53,101.41,101.41,0,0,1-43.29-13.68c-6.52-3.88-12.61-8.49-19-12.87-.29.23-.88.68-1.44,1.17A104.54,104.54,0,0,1,234.36,474c-5.32,1.28-10.74,2.1-16.11,3.12H200.33a10.42,10.42,0,0,0-1.82-.53,106.3,106.3,0,0,1-37.88-10.82c-42-20.94-66.22-68-57.69-114.22,7.49-40.59,31.12-68.29,69.63-83.16,2.57-1,5.21-1.82,8-2.78-.47-1.3-.88-2.42-1.27-3.55a105.63,105.63,0,0,1-5.05-52.64c4.22-25.9,16.11-47.65,35.92-65a103.55,103.55,0,0,1,48.74-24.1C263.24,119.52,267.64,118.88,272,118.15Z"/></g></svg>