<?xml version="1.0" encoding="utf-8"?>
<!-- Generator: Adobe Illustrator 24.0.1, SVG Export Plug-In . SVG Version: 6.00 Build 0)  -->
<svg version="1.1" id="Layer_1" xmlns="http://www.w3.org/2000/svg" xmlns:xlink="http://www.w3.org/1999/xlink" x="0px" y="0px"
	 viewBox="0 0 500 500" style="enable-background:new 0 0 500 500;" xml:space="preserve">
<style type="text/css">
	.st0{fill:#F0F1F1;}
	.st1{fill:#131F3C;}
	.st2{clip-path:url(#SVGID_2_);}
	.st3{clip-path:url(#SVGID_6_);}
	.st4{clip-path:url(#SVGID_8_);fill:#B07D52;}
	.st5{clip-path:url(#SVGID_10_);}
	.st6{clip-path:url(#SVGID_14_);}
	.st7{clip-path:url(#SVGID_16_);fill:#B07D52;}
	.st8{clip-path:url(#SVGID_18_);fill:url(#SVGID_19_);}
	.st9{clip-path:url(#SVGID_21_);fill:url(#SVGID_22_);}
	.st10{clip-path:url(#SVGID_24_);fill:url(#SVGID_25_);}
	.st11{clip-path:url(#SVGID_27_);fill:url(#SVGID_28_);}
	.st12{clip-path:url(#SVGID_30_);fill:url(#SVGID_31_);}
	.st13{clip-path:url(#SVGID_33_);fill:url(#SVGID_34_);}
	.st14{clip-path:url(#SVGID_36_);fill:url(#SVGID_37_);}
	.st15{clip-path:url(#SVGID_39_);fill:url(#SVGID_40_);}
	.st16{clip-path:url(#SVGID_42_);fill:url(#SVGID_43_);}
	.st17{clip-path:url(#SVGID_45_);fill:url(#SVGID_46_);}
	.st18{clip-path:url(#SVGID_48_);fill:url(#SVGID_49_);}
	.st19{clip-path:url(#SVGID_51_);fill:url(#SVGID_52_);}
	.st20{clip-path:url(#SVGID_54_);fill:url(#SVGID_55_);}
	.st21{clip-path:url(#SVGID_57_);fill:#131F3C;}
	.st22{clip-path:url(#SVGID_59_);fill:#FFFFFF;}
	.st23{clip-path:url(#SVGID_59_);fill:#B07D52;}
	.st24{clip-path:url(#SVGID_61_);fill:none;stroke:#B07D52;stroke-miterlimit:10;}
	.st25{clip-path:url(#SVGID_63_);fill:none;stroke:#B07D52;stroke-miterlimit:10;}
	.st26{clip-path:url(#SVGID_65_);fill:none;stroke:#B07D52;stroke-miterlimit:10;}
	.st27{clip-path:url(#SVGID_67_);fill:none;stroke:#B07D52;stroke-miterlimit:10;}
	.st28{clip-path:url(#SVGID_69_);fill:url(#SVGID_70_);}
	.st29{clip-path:url(#SVGID_72_);fill:url(#SVGID_73_);}
	.st30{clip-path:url(#SVGID_75_);fill:url(#SVGID_76_);}
	.st31{clip-path:url(#SVGID_78_);fill:url(#SVGID_79_);}
	.st32{clip-path:url(#SVGID_81_);fill:url(#SVGID_82_);}
	.st33{clip-path:url(#SVGID_84_);fill:url(#SVGID_85_);}
	.st34{clip-path:url(#SVGID_87_);fill:url(#SVGID_88_);}
	.st35{clip-path:url(#SVGID_90_);fill:url(#SVGID_91_);}
	.st36{clip-path:url(#SVGID_93_);fill:url(#SVGID_94_);}
	.st37{clip-path:url(#SVGID_96_);fill:url(#SVGID_97_);}
	.st38{clip-path:url(#SVGID_99_);fill:url(#SVGID_100_);}
	.st39{clip-path:url(#SVGID_102_);fill:url(#SVGID_103_);}
	.st40{clip-path:url(#SVGID_105_);fill:url(#SVGID_106_);}
	.st41{clip-path:url(#SVGID_108_);fill:#775135;}
	.st42{clip-path:url(#SVGID_110_);fill:none;stroke:#B07D52;stroke-width:0.75;stroke-miterlimit:10;}
	.st43{clip-path:url(#SVGID_112_);fill:none;stroke:#B07D52;stroke-width:0.75;stroke-miterlimit:10;}
	.st44{clip-path:url(#SVGID_114_);fill:none;stroke:#B07D52;stroke-width:0.75;stroke-miterlimit:10;}
	.st45{clip-path:url(#SVGID_116_);fill:none;stroke:#B07D52;stroke-width:0.75;stroke-miterlimit:10;}
	.st46{clip-path:url(#SVGID_118_);fill:none;stroke:#B07D52;stroke-width:0.75;stroke-miterlimit:10;}
	.st47{clip-path:url(#SVGID_120_);fill:none;stroke:#B07D52;stroke-width:0.75;stroke-miterlimit:10;}
	.st48{clip-path:url(#SVGID_122_);fill:none;stroke:#B07D52;stroke-width:0.75;stroke-miterlimit:10;}
	.st49{clip-path:url(#SVGID_124_);fill:none;stroke:#B07D52;stroke-width:0.75;stroke-miterlimit:10;}
	.st50{clip-path:url(#SVGID_126_);fill:none;stroke:#B07D52;stroke-width:0.75;stroke-miterlimit:10;}
	.st51{clip-path:url(#SVGID_128_);fill:none;stroke:#B07D52;stroke-width:0.75;stroke-miterlimit:10;}
	.st52{clip-path:url(#SVGID_130_);fill:none;stroke:#B07D52;stroke-width:0.75;stroke-miterlimit:10;}
	.st53{clip-path:url(#SVGID_132_);fill:none;stroke:#B07D52;stroke-width:0.75;stroke-miterlimit:10;}
	.st54{clip-path:url(#SVGID_134_);fill:none;stroke:#B07D52;stroke-width:0.75;stroke-miterlimit:10;}
	.st55{clip-path:url(#SVGID_136_);fill:none;stroke:#B07D52;stroke-width:0.75;stroke-miterlimit:10;}
	.st56{clip-path:url(#SVGID_138_);fill:none;stroke:#B07D52;stroke-width:0.75;stroke-miterlimit:10;}
	.st57{clip-path:url(#SVGID_140_);fill:none;stroke:#B07D52;stroke-width:0.75;stroke-miterlimit:10;}
	.st58{clip-path:url(#SVGID_142_);fill:none;stroke:#B07D52;stroke-width:0.75;stroke-miterlimit:10;}
	.st59{clip-path:url(#SVGID_144_);fill:none;stroke:#B07D52;stroke-miterlimit:10;}
	.st60{clip-path:url(#SVGID_144_);fill:none;stroke:#B07D52;stroke-width:0.75;stroke-miterlimit:10;}
	.st61{clip-path:url(#SVGID_144_);fill:none;stroke:#775135;stroke-width:2;stroke-miterlimit:10;}
	.st62{clip-path:url(#SVGID_144_);fill:#B07D52;}
	.st63{clip-path:url(#SVGID_146_);}
	.st64{clip-path:url(#SVGID_150_);}
	.st65{clip-path:url(#SVGID_154_);}
	.st66{clip-path:url(#SVGID_158_);fill:#B07D52;}
	.st67{clip-path:url(#SVGID_160_);fill:#B07D52;}
	.st68{clip-path:url(#SVGID_162_);fill:#B07D52;}
	.st69{clip-path:url(#SVGID_164_);}
	.st70{clip-path:url(#SVGID_168_);fill:#B07D52;}
	.st71{clip-path:url(#SVGID_170_);}
	.st72{clip-path:url(#SVGID_174_);fill:#B07D52;}
	.st73{clip-path:url(#SVGID_176_);}
	.st74{clip-path:url(#SVGID_180_);fill:#B07D52;}
	.st75{fill:none;}
	.st76{clip-path:url(#SVGID_182_);fill:none;stroke:#FFFFFF;stroke-miterlimit:10;}
	.st77{clip-path:url(#SVGID_184_);fill:none;stroke:#FFFFFF;stroke-miterlimit:10;}
	.st78{clip-path:url(#SVGID_186_);fill:none;stroke:#FFFFFF;stroke-miterlimit:10;}
	.st79{clip-path:url(#SVGID_186_);fill:none;stroke:#B07D52;stroke-miterlimit:10;}
	.st80{clip-path:url(#SVGID_188_);fill:none;stroke:#B07D52;stroke-miterlimit:10;}
	.st81{fill:none;stroke:#929497;stroke-width:1.5;stroke-miterlimit:10;}
	.st82{fill:none;stroke:#929497;stroke-width:1.5;stroke-linejoin:round;stroke-miterlimit:10;}
	.st83{fill:#929497;}
	.st84{fill:#B07D52;}
</style>
<g>
	<g>
		<path class="st83" d="M250.26,385.39l-1.39-0.78c-43.32-24.26-70.23-70.17-70.23-119.82v-35.9l1.06-0.86
			c40.89-33.08,100.24-33.08,141.13,0l1.06,0.86v35.9c0,49.64-26.91,95.56-70.23,119.82L250.26,385.39z M184.35,231.63v33.16
			c0,47.05,25.21,90.6,65.92,114.05c40.7-23.45,65.91-67,65.91-114.05v-33.16C277.76,201.36,222.76,201.36,184.35,231.63z"/>
	</g>
	<g>
		<path class="st83" d="M250.26,198.66c-24.2,0-43.89-19.69-43.89-43.89c0-24.2,19.69-43.89,43.89-43.89s43.9,19.69,43.9,43.89
			C294.16,178.97,274.47,198.66,250.26,198.66z M250.26,116.59c-21.05,0-38.18,17.13-38.18,38.18c0,21.05,17.13,38.18,38.18,38.18
			s38.18-17.13,38.18-38.18C288.44,133.71,271.31,116.59,250.26,116.59z"/>
	</g>
	<g>
		<path class="st83" d="M339.66,346.19l-1.39-0.78c-12.45-6.97-23.11-16.29-31.67-27.69l4.57-3.43
			c7.76,10.33,17.35,18.86,28.5,25.34c29.49-17.17,47.75-48.84,47.75-83.05v-24.03c-22.89-17.85-54.41-21.44-80.72-9.09l-2.43-5.17
			c28.67-13.47,63.14-9.29,87.8,10.66l1.06,0.86v26.78c0,36.81-19.95,70.85-52.07,88.83L339.66,346.19z"/>
	</g>
	<g>
		<path class="st83" d="M339.66,208.68c-18.23,0-33.05-14.83-33.05-33.06s14.83-33.06,33.05-33.06c18.23,0,33.05,14.83,33.05,33.06
			S357.89,208.68,339.66,208.68z M339.66,148.27c-15.08,0-27.34,12.27-27.34,27.34s12.26,27.34,27.34,27.34
			c15.08,0,27.34-12.27,27.34-27.34S354.74,148.27,339.66,148.27z"/>
	</g>
	<g>
		<path class="st83" d="M158.62,346.19l-1.39-0.78c-32.11-17.99-52.06-52.02-52.06-88.83V229.8l1.06-0.86
			c25.13-20.33,60.1-24.26,89.08-10.04l-2.51,5.13c-26.61-13.05-58.59-9.69-81.91,8.51v24.04c0,34.2,18.25,65.88,47.74,83.05
			c11.87-6.9,21.92-16.07,29.9-27.27l4.66,3.32c-8.79,12.33-19.94,22.33-33.16,29.73L158.62,346.19z"/>
	</g>
	<g>
		<path class="st83" d="M158.62,208.68c-18.23,0-33.05-14.83-33.05-33.06s14.83-33.06,33.05-33.06s33.05,14.83,33.05,33.06
			S176.85,208.68,158.62,208.68z M158.62,148.27c-15.08,0-27.34,12.27-27.34,27.34s12.26,27.34,27.34,27.34s27.34-12.27,27.34-27.34
			S173.7,148.27,158.62,148.27z"/>
	</g>
	<g>
		<rect x="247.4" y="81.09" class="st83" width="5.71" height="14.58"/>
	</g>
	<g>
		
			<rect x="286.44" y="103.53" transform="matrix(0.7071 -0.7071 0.7071 0.7071 10.8054 238.86)" class="st83" width="14.58" height="5.71"/>
	</g>
	<g>
		
			<rect x="203.93" y="99.1" transform="matrix(0.7071 -0.7071 0.7071 0.7071 -14.6598 177.3815)" class="st83" width="5.71" height="14.58"/>
	</g>
	<g>
		
			<rect x="265.81" y="89.92" transform="matrix(0.3712 -0.9286 0.9286 0.3712 85.5844 311.9334)" class="st83" width="14.58" height="5.71"/>
	</g>
	<g>
		
			<rect x="223.19" y="86.06" transform="matrix(0.9193 -0.3936 0.3936 0.9193 -18.495 96.5029)" class="st83" width="5.71" height="14.58"/>
	</g>
</g>
</svg>
