<?xml version="1.0" encoding="utf-8"?>
<!-- Generator: Adobe Illustrator 24.0.1, SVG Export Plug-In . SVG Version: 6.00 Build 0)  -->
<svg version="1.1" id="Layer_1" xmlns="http://www.w3.org/2000/svg" xmlns:xlink="http://www.w3.org/1999/xlink" x="0px" y="0px"
	 viewBox="0 0 500 500" style="enable-background:new 0 0 500 500;" xml:space="preserve">
<style type="text/css">
	.st0{fill:#F0F1F1;}
	.st1{fill:#131F3C;}
	.st2{clip-path:url(#SVGID_2_);}
	.st3{clip-path:url(#SVGID_6_);}
	.st4{clip-path:url(#SVGID_8_);fill:#B07D52;}
	.st5{clip-path:url(#SVGID_10_);}
	.st6{clip-path:url(#SVGID_14_);}
	.st7{clip-path:url(#SVGID_16_);fill:#B07D52;}
	.st8{clip-path:url(#SVGID_18_);fill:url(#SVGID_19_);}
	.st9{clip-path:url(#SVGID_21_);fill:url(#SVGID_22_);}
	.st10{clip-path:url(#SVGID_24_);fill:url(#SVGID_25_);}
	.st11{clip-path:url(#SVGID_27_);fill:url(#SVGID_28_);}
	.st12{clip-path:url(#SVGID_30_);fill:url(#SVGID_31_);}
	.st13{clip-path:url(#SVGID_33_);fill:url(#SVGID_34_);}
	.st14{clip-path:url(#SVGID_36_);fill:url(#SVGID_37_);}
	.st15{clip-path:url(#SVGID_39_);fill:url(#SVGID_40_);}
	.st16{clip-path:url(#SVGID_42_);fill:url(#SVGID_43_);}
	.st17{clip-path:url(#SVGID_45_);fill:url(#SVGID_46_);}
	.st18{clip-path:url(#SVGID_48_);fill:url(#SVGID_49_);}
	.st19{clip-path:url(#SVGID_51_);fill:url(#SVGID_52_);}
	.st20{clip-path:url(#SVGID_54_);fill:url(#SVGID_55_);}
	.st21{clip-path:url(#SVGID_57_);fill:#131F3C;}
	.st22{clip-path:url(#SVGID_59_);fill:#FFFFFF;}
	.st23{clip-path:url(#SVGID_59_);fill:#B07D52;}
	.st24{clip-path:url(#SVGID_61_);fill:none;stroke:#B07D52;stroke-miterlimit:10;}
	.st25{clip-path:url(#SVGID_63_);fill:none;stroke:#B07D52;stroke-miterlimit:10;}
	.st26{clip-path:url(#SVGID_65_);fill:none;stroke:#B07D52;stroke-miterlimit:10;}
	.st27{clip-path:url(#SVGID_67_);fill:none;stroke:#B07D52;stroke-miterlimit:10;}
	.st28{clip-path:url(#SVGID_69_);fill:url(#SVGID_70_);}
	.st29{clip-path:url(#SVGID_72_);fill:url(#SVGID_73_);}
	.st30{clip-path:url(#SVGID_75_);fill:url(#SVGID_76_);}
	.st31{clip-path:url(#SVGID_78_);fill:url(#SVGID_79_);}
	.st32{clip-path:url(#SVGID_81_);fill:url(#SVGID_82_);}
	.st33{clip-path:url(#SVGID_84_);fill:url(#SVGID_85_);}
	.st34{clip-path:url(#SVGID_87_);fill:url(#SVGID_88_);}
	.st35{clip-path:url(#SVGID_90_);fill:url(#SVGID_91_);}
	.st36{clip-path:url(#SVGID_93_);fill:url(#SVGID_94_);}
	.st37{clip-path:url(#SVGID_96_);fill:url(#SVGID_97_);}
	.st38{clip-path:url(#SVGID_99_);fill:url(#SVGID_100_);}
	.st39{clip-path:url(#SVGID_102_);fill:url(#SVGID_103_);}
	.st40{clip-path:url(#SVGID_105_);fill:url(#SVGID_106_);}
	.st41{clip-path:url(#SVGID_108_);fill:#775135;}
	.st42{clip-path:url(#SVGID_110_);fill:none;stroke:#B07D52;stroke-width:0.75;stroke-miterlimit:10;}
	.st43{clip-path:url(#SVGID_112_);fill:none;stroke:#B07D52;stroke-width:0.75;stroke-miterlimit:10;}
	.st44{clip-path:url(#SVGID_114_);fill:none;stroke:#B07D52;stroke-width:0.75;stroke-miterlimit:10;}
	.st45{clip-path:url(#SVGID_116_);fill:none;stroke:#B07D52;stroke-width:0.75;stroke-miterlimit:10;}
	.st46{clip-path:url(#SVGID_118_);fill:none;stroke:#B07D52;stroke-width:0.75;stroke-miterlimit:10;}
	.st47{clip-path:url(#SVGID_120_);fill:none;stroke:#B07D52;stroke-width:0.75;stroke-miterlimit:10;}
	.st48{clip-path:url(#SVGID_122_);fill:none;stroke:#B07D52;stroke-width:0.75;stroke-miterlimit:10;}
	.st49{clip-path:url(#SVGID_124_);fill:none;stroke:#B07D52;stroke-width:0.75;stroke-miterlimit:10;}
	.st50{clip-path:url(#SVGID_126_);fill:none;stroke:#B07D52;stroke-width:0.75;stroke-miterlimit:10;}
	.st51{clip-path:url(#SVGID_128_);fill:none;stroke:#B07D52;stroke-width:0.75;stroke-miterlimit:10;}
	.st52{clip-path:url(#SVGID_130_);fill:none;stroke:#B07D52;stroke-width:0.75;stroke-miterlimit:10;}
	.st53{clip-path:url(#SVGID_132_);fill:none;stroke:#B07D52;stroke-width:0.75;stroke-miterlimit:10;}
	.st54{clip-path:url(#SVGID_134_);fill:none;stroke:#B07D52;stroke-width:0.75;stroke-miterlimit:10;}
	.st55{clip-path:url(#SVGID_136_);fill:none;stroke:#B07D52;stroke-width:0.75;stroke-miterlimit:10;}
	.st56{clip-path:url(#SVGID_138_);fill:none;stroke:#B07D52;stroke-width:0.75;stroke-miterlimit:10;}
	.st57{clip-path:url(#SVGID_140_);fill:none;stroke:#B07D52;stroke-width:0.75;stroke-miterlimit:10;}
	.st58{clip-path:url(#SVGID_142_);fill:none;stroke:#B07D52;stroke-width:0.75;stroke-miterlimit:10;}
	.st59{clip-path:url(#SVGID_144_);fill:none;stroke:#B07D52;stroke-miterlimit:10;}
	.st60{clip-path:url(#SVGID_144_);fill:none;stroke:#B07D52;stroke-width:0.75;stroke-miterlimit:10;}
	.st61{clip-path:url(#SVGID_144_);fill:none;stroke:#775135;stroke-width:2;stroke-miterlimit:10;}
	.st62{clip-path:url(#SVGID_144_);fill:#B07D52;}
	.st63{clip-path:url(#SVGID_146_);}
	.st64{clip-path:url(#SVGID_150_);}
	.st65{clip-path:url(#SVGID_154_);}
	.st66{clip-path:url(#SVGID_158_);fill:#B07D52;}
	.st67{clip-path:url(#SVGID_160_);fill:#B07D52;}
	.st68{clip-path:url(#SVGID_162_);fill:#B07D52;}
	.st69{clip-path:url(#SVGID_164_);}
	.st70{clip-path:url(#SVGID_168_);fill:#B07D52;}
	.st71{clip-path:url(#SVGID_170_);}
	.st72{clip-path:url(#SVGID_174_);fill:#B07D52;}
	.st73{clip-path:url(#SVGID_176_);}
	.st74{clip-path:url(#SVGID_180_);fill:#B07D52;}
	.st75{fill:none;}
	.st76{clip-path:url(#SVGID_182_);fill:none;stroke:#FFFFFF;stroke-miterlimit:10;}
	.st77{clip-path:url(#SVGID_184_);fill:none;stroke:#FFFFFF;stroke-miterlimit:10;}
	.st78{clip-path:url(#SVGID_186_);fill:none;stroke:#FFFFFF;stroke-miterlimit:10;}
	.st79{clip-path:url(#SVGID_186_);fill:none;stroke:#B07D52;stroke-miterlimit:10;}
	.st80{clip-path:url(#SVGID_188_);fill:none;stroke:#B07D52;stroke-miterlimit:10;}
	.st81{fill:none;stroke:#929497;stroke-width:1.5;stroke-miterlimit:10;}
	.st82{fill:none;stroke:#929497;stroke-width:1.5;stroke-linejoin:round;stroke-miterlimit:10;}
	.st83{fill:#929497;}
	.st84{fill:#B07D52;}
</style>
<g>
	<g>
		<path class="st83" d="M106.35,230.69l-5.49-1.58c0.13-0.44,12.98-43.7,62.03-42.53c31.25,0.72,67.59,23.91,69.12,24.89l-3.09,4.81
			c-0.36-0.23-36.53-23.3-66.16-23.99c-0.59-0.01-1.18-0.02-1.76-0.02C118.03,192.26,106.81,229.09,106.35,230.69z"/>
	</g>
	<g>
		<path class="st83" d="M347.06,312.76c-0.6,0-1.2,0-1.82-0.02c-31.25-0.71-67.54-23.79-69.07-24.77l-36.42-24.35l3.18-4.75
			l36.38,24.32c0.32,0.2,36.44,23.16,66.07,23.83c0.57,0.01,1.14,0.02,1.7,0.02c43.09,0,55.54-38.21,56.05-39.86l5.46,1.69
			C408.46,269.33,394.45,312.76,347.06,312.76z"/>
	</g>
	<g>
		<path class="st83" d="M138.6,273.03c-5.61,0-11.18-0.19-16.6-0.38c-5.25-0.18-10.21-0.36-15.02-0.36H16.75v-44.27h139.27
			c1.24,0.03,27.82,0.88,45.16,12.9c0.83-0.87,1.66-1.73,2.48-2.6c8.95-9.39,18.19-19.09,27.22-29.2
			c16.97-19.03,44.41-23.29,77.26-11.97l-1.86,5.4c-30.53-10.51-55.79-6.83-71.14,10.37c-9.08,10.19-18.37,19.93-27.34,29.34
			c-3.76,3.94-7.46,7.82-11.07,11.66C181.36,270.25,159.77,273.03,138.6,273.03z M22.46,266.58h84.51c4.91,0,9.91,0.17,15.22,0.36
			c24.71,0.86,52.71,1.84,70.38-16.94c1.52-1.62,3.06-3.25,4.62-4.88c-15.98-10.57-40.98-11.38-41.24-11.38H22.46V266.58z"/>
	</g>
	<g>
		<path class="st83" d="M352.07,270.9c-4.37,0-29.54-0.48-48.75-11.1l-38.65-20.56l2.69-5.04l35.87,19.08
			c1.36-1.35,2.53-2.39,3.68-3.41c1.58-1.41,3.08-2.75,5.08-4.87c19.44-20.66,48.82-19.65,74.74-18.73
			c5.25,0.18,10.21,0.36,15.02,0.36h90.22v44.27H352.7C352.62,270.89,352.41,270.9,352.07,270.9z M308.56,256.08
			c19.09,9.37,43.86,9.12,44.1,9.1h133.61v-32.85h-84.51c-4.91,0-9.91-0.17-15.22-0.36c-24.71-0.84-52.71-1.84-70.38,16.94
			c-2.18,2.31-3.84,3.79-5.45,5.22C309.99,254.77,309.29,255.4,308.56,256.08z"/>
	</g>
	<g>
		<path class="st83" d="M235.95,306.82c-11.48,0-24.19-2.83-38.22-8.48l2.14-5.3c33.16,13.35,57.24,10.36,75.77-9.43l4.17,3.91
			C267.75,300.4,253.23,306.82,235.95,306.82z"/>
	</g>
	<g>
		<path class="st83" d="M158.12,313.46c-6.38,0-12.68-0.93-18.64-2.86c-18.68-6.05-31.22-20.47-35.31-40.59l5.6-1.14
			c3.66,18.02,14.84,30.9,31.47,36.29c19.51,6.32,43.2,0.86,58.93-13.6c2.82-2.59,8.32-7.5,15.11-13.57
			c18.91-16.89,47.48-42.41,56.4-51.9c30.93-32.91,51.87-39.53,75.64-39.53c18.36,0,51.23,11.2,61.26,41.26l-5.42,1.81
			c-8.6-25.76-37.83-37.35-55.85-37.35c-18.99,0-38.74,2.89-71.47,37.73c-9.09,9.67-37.77,35.29-56.75,52.25
			c-6.77,6.04-12.25,10.94-15.05,13.52C191.63,307.18,174.65,313.46,158.12,313.46z"/>
	</g>
</g>
</svg>
