<?xml version="1.0" encoding="utf-8"?>
<!-- Generator: Adobe Illustrator 24.0.1, SVG Export Plug-In . SVG Version: 6.00 Build 0)  -->
<svg version="1.1" id="Layer_1" xmlns="http://www.w3.org/2000/svg" xmlns:xlink="http://www.w3.org/1999/xlink" x="0px" y="0px"
	 viewBox="0 0 500 500" style="enable-background:new 0 0 500 500;" xml:space="preserve">
<style type="text/css">
	.st0{fill:#F0F1F1;}
	.st1{fill:#131F3C;}
	.st2{clip-path:url(#SVGID_2_);}
	.st3{clip-path:url(#SVGID_6_);}
	.st4{clip-path:url(#SVGID_8_);fill:#B07D52;}
	.st5{clip-path:url(#SVGID_10_);}
	.st6{clip-path:url(#SVGID_14_);}
	.st7{clip-path:url(#SVGID_16_);fill:#B07D52;}
	.st8{clip-path:url(#SVGID_18_);fill:url(#SVGID_19_);}
	.st9{clip-path:url(#SVGID_21_);fill:url(#SVGID_22_);}
	.st10{clip-path:url(#SVGID_24_);fill:url(#SVGID_25_);}
	.st11{clip-path:url(#SVGID_27_);fill:url(#SVGID_28_);}
	.st12{clip-path:url(#SVGID_30_);fill:url(#SVGID_31_);}
	.st13{clip-path:url(#SVGID_33_);fill:url(#SVGID_34_);}
	.st14{clip-path:url(#SVGID_36_);fill:url(#SVGID_37_);}
	.st15{clip-path:url(#SVGID_39_);fill:url(#SVGID_40_);}
	.st16{clip-path:url(#SVGID_42_);fill:url(#SVGID_43_);}
	.st17{clip-path:url(#SVGID_45_);fill:url(#SVGID_46_);}
	.st18{clip-path:url(#SVGID_48_);fill:url(#SVGID_49_);}
	.st19{clip-path:url(#SVGID_51_);fill:url(#SVGID_52_);}
	.st20{clip-path:url(#SVGID_54_);fill:url(#SVGID_55_);}
	.st21{clip-path:url(#SVGID_57_);fill:#131F3C;}
	.st22{clip-path:url(#SVGID_59_);fill:#FFFFFF;}
	.st23{clip-path:url(#SVGID_59_);fill:#B07D52;}
	.st24{clip-path:url(#SVGID_61_);fill:none;stroke:#B07D52;stroke-miterlimit:10;}
	.st25{clip-path:url(#SVGID_63_);fill:none;stroke:#B07D52;stroke-miterlimit:10;}
	.st26{clip-path:url(#SVGID_65_);fill:none;stroke:#B07D52;stroke-miterlimit:10;}
	.st27{clip-path:url(#SVGID_67_);fill:none;stroke:#B07D52;stroke-miterlimit:10;}
	.st28{clip-path:url(#SVGID_69_);fill:url(#SVGID_70_);}
	.st29{clip-path:url(#SVGID_72_);fill:url(#SVGID_73_);}
	.st30{clip-path:url(#SVGID_75_);fill:url(#SVGID_76_);}
	.st31{clip-path:url(#SVGID_78_);fill:url(#SVGID_79_);}
	.st32{clip-path:url(#SVGID_81_);fill:url(#SVGID_82_);}
	.st33{clip-path:url(#SVGID_84_);fill:url(#SVGID_85_);}
	.st34{clip-path:url(#SVGID_87_);fill:url(#SVGID_88_);}
	.st35{clip-path:url(#SVGID_90_);fill:url(#SVGID_91_);}
	.st36{clip-path:url(#SVGID_93_);fill:url(#SVGID_94_);}
	.st37{clip-path:url(#SVGID_96_);fill:url(#SVGID_97_);}
	.st38{clip-path:url(#SVGID_99_);fill:url(#SVGID_100_);}
	.st39{clip-path:url(#SVGID_102_);fill:url(#SVGID_103_);}
	.st40{clip-path:url(#SVGID_105_);fill:url(#SVGID_106_);}
	.st41{clip-path:url(#SVGID_108_);fill:#775135;}
	.st42{clip-path:url(#SVGID_110_);fill:none;stroke:#B07D52;stroke-width:0.75;stroke-miterlimit:10;}
	.st43{clip-path:url(#SVGID_112_);fill:none;stroke:#B07D52;stroke-width:0.75;stroke-miterlimit:10;}
	.st44{clip-path:url(#SVGID_114_);fill:none;stroke:#B07D52;stroke-width:0.75;stroke-miterlimit:10;}
	.st45{clip-path:url(#SVGID_116_);fill:none;stroke:#B07D52;stroke-width:0.75;stroke-miterlimit:10;}
	.st46{clip-path:url(#SVGID_118_);fill:none;stroke:#B07D52;stroke-width:0.75;stroke-miterlimit:10;}
	.st47{clip-path:url(#SVGID_120_);fill:none;stroke:#B07D52;stroke-width:0.75;stroke-miterlimit:10;}
	.st48{clip-path:url(#SVGID_122_);fill:none;stroke:#B07D52;stroke-width:0.75;stroke-miterlimit:10;}
	.st49{clip-path:url(#SVGID_124_);fill:none;stroke:#B07D52;stroke-width:0.75;stroke-miterlimit:10;}
	.st50{clip-path:url(#SVGID_126_);fill:none;stroke:#B07D52;stroke-width:0.75;stroke-miterlimit:10;}
	.st51{clip-path:url(#SVGID_128_);fill:none;stroke:#B07D52;stroke-width:0.75;stroke-miterlimit:10;}
	.st52{clip-path:url(#SVGID_130_);fill:none;stroke:#B07D52;stroke-width:0.75;stroke-miterlimit:10;}
	.st53{clip-path:url(#SVGID_132_);fill:none;stroke:#B07D52;stroke-width:0.75;stroke-miterlimit:10;}
	.st54{clip-path:url(#SVGID_134_);fill:none;stroke:#B07D52;stroke-width:0.75;stroke-miterlimit:10;}
	.st55{clip-path:url(#SVGID_136_);fill:none;stroke:#B07D52;stroke-width:0.75;stroke-miterlimit:10;}
	.st56{clip-path:url(#SVGID_138_);fill:none;stroke:#B07D52;stroke-width:0.75;stroke-miterlimit:10;}
	.st57{clip-path:url(#SVGID_140_);fill:none;stroke:#B07D52;stroke-width:0.75;stroke-miterlimit:10;}
	.st58{clip-path:url(#SVGID_142_);fill:none;stroke:#B07D52;stroke-width:0.75;stroke-miterlimit:10;}
	.st59{clip-path:url(#SVGID_144_);fill:none;stroke:#B07D52;stroke-miterlimit:10;}
	.st60{clip-path:url(#SVGID_144_);fill:none;stroke:#B07D52;stroke-width:0.75;stroke-miterlimit:10;}
	.st61{clip-path:url(#SVGID_144_);fill:none;stroke:#775135;stroke-width:2;stroke-miterlimit:10;}
	.st62{clip-path:url(#SVGID_144_);fill:#B07D52;}
	.st63{clip-path:url(#SVGID_146_);}
	.st64{clip-path:url(#SVGID_150_);}
	.st65{clip-path:url(#SVGID_154_);}
	.st66{clip-path:url(#SVGID_158_);fill:#B07D52;}
	.st67{clip-path:url(#SVGID_160_);fill:#B07D52;}
	.st68{clip-path:url(#SVGID_162_);fill:#B07D52;}
	.st69{clip-path:url(#SVGID_164_);}
	.st70{clip-path:url(#SVGID_168_);fill:#B07D52;}
	.st71{clip-path:url(#SVGID_170_);}
	.st72{clip-path:url(#SVGID_174_);fill:#B07D52;}
	.st73{clip-path:url(#SVGID_176_);}
	.st74{clip-path:url(#SVGID_180_);fill:#B07D52;}
	.st75{fill:none;}
	.st76{clip-path:url(#SVGID_182_);fill:none;stroke:#FFFFFF;stroke-miterlimit:10;}
	.st77{clip-path:url(#SVGID_184_);fill:none;stroke:#FFFFFF;stroke-miterlimit:10;}
	.st78{clip-path:url(#SVGID_186_);fill:none;stroke:#FFFFFF;stroke-miterlimit:10;}
	.st79{clip-path:url(#SVGID_186_);fill:none;stroke:#B07D52;stroke-miterlimit:10;}
	.st80{clip-path:url(#SVGID_188_);fill:none;stroke:#B07D52;stroke-miterlimit:10;}
	.st81{fill:none;stroke:#929497;stroke-width:1.5;stroke-miterlimit:10;}
	.st82{fill:none;stroke:#929497;stroke-width:1.5;stroke-linejoin:round;stroke-miterlimit:10;}
	.st83{fill:#929497;}
	.st84{fill:#B07D52;}
</style>
<g>
	<g>
		<path class="st83" d="M258.35,389.02c-7.76,0-15.56-0.99-23.23-2.96c-35.62-9.13-63.23-37.11-70.34-71.27
			c-1.2-5.77-2.31-19.31-2.37-24.77l5.71-0.06c0.06,5.11,1.13,18.29,2.25,23.66c6.67,32.05,32.65,58.31,66.17,66.9
			c7.93,2.03,16,2.95,23.99,2.75c6.58-0.17,13.17-1.09,19.61-2.76c37.1-9.57,63.23-42.73,63.54-80.63
			c0.11-13.14-2.3-27.25-7.17-41.94l-0.89-2.75c-0.38-1.18-0.77-2.4-1.19-3.66c-0.36,3.64-1.07,7.28-2.42,10.96
			c-3.39,9.25-11.96,19.95-25.03,19.95c-0.13,0-0.26,0-0.39,0c-7.57-0.13-14.91-4.23-20.14-11.23c-4.11-5.5-6.87-12.57-8.22-21.02
			c-2.31-14.46-0.71-29.61,0.84-44.27c2.95-27.93,5.74-54.31-17-75.31c-7.97-7.35-18.2-13.24-28.45-16.5
			c5.68,7.46,9.28,17.03,9.64,23.5c0.64,11.87-2.79,24.69-10.18,38.11c-7.2,13.07-17.33,26.72-27.13,39.92
			c-6.05,8.15-12.31,16.58-17.59,24.52l-4.76-3.16c5.36-8.07,11.67-16.56,17.76-24.77c9.69-13.05,19.7-26.54,26.72-39.27
			c6.87-12.47,10.06-24.26,9.48-35.04c-0.39-7.12-5.94-19.34-13.29-25.48c-1.17-0.97-1.54-2.63-0.89-4.02
			c0.65-1.38,2.13-2.14,3.63-1.87c13.87,2.58,28.07,9.82,38.95,19.87c24.84,22.95,21.77,52.01,18.8,80.11
			c-1.51,14.28-3.07,29.05-0.88,42.77c1.2,7.53,3.61,13.75,7.15,18.5c4.17,5.58,9.88,8.84,15.66,8.94c0.1,0,0.2,0,0.29,0
			c10.13,0,16.92-8.7,19.67-16.2c2.31-6.31,2.47-12.79,2.43-19.44c-0.01-1.64,1.1-3.05,2.7-3.43c1.6-0.38,3.21,0.38,3.93,1.83
			c2.5,5.04,4.02,9.77,5.36,13.95l0.87,2.69c5.06,15.28,7.57,30.02,7.46,43.78c-0.33,40.5-28.22,75.91-67.82,86.13
			c-6.86,1.77-13.88,2.76-20.89,2.93C259.9,389.01,259.12,389.02,258.35,389.02z M227.91,108.05c0.01,0,0.01,0.01,0.02,0.01
			C227.92,108.06,227.91,108.05,227.91,108.05z"/>
	</g>
	<g>
		<path class="st83" d="M277.41,387.02l-1.48-5.52c11.07-2.96,19.35-10.35,23.31-20.79c4.67-12.33,2.75-27.27-5.01-39
			c-12.67-19.14-34.99-31.17-56.57-42.79c-32.28-17.39-65.66-35.37-69.49-77.53c-0.03-0.37-0.06-0.73-0.09-1.1
			c-1.3,3.71-2.35,7.26-3.29,10.46c-5.9,19.95-7.52,38.44-4.81,54.96c2.15,13.12,7.98,25.72,16.87,36.44
			c9.59,11.58,21.82,17.34,35.64,23.16c8.92,3.75,16,7.74,21.64,12.2c10.24,8.11,14.49,18.17,11.68,27.61
			c-1.71,5.71-5.36,9.78-10.57,11.76c-9.83,3.73-23.95-0.54-32.91-6.09l3.01-4.86c8.06,4.99,20.23,8.51,27.88,5.61
			c3.58-1.36,5.91-4,7.12-8.06c2.89-9.69-4.87-17.63-9.75-21.5c-5.22-4.13-11.87-7.87-20.31-11.42
			c-14.53-6.12-27.41-12.21-37.82-24.78c-9.53-11.5-15.79-25.04-18.11-39.16c-2.85-17.38-1.18-36.72,4.97-57.5
			c2.19-7.41,4.91-16.62,9.98-25.75c0.68-1.22,2.15-1.77,3.45-1.31c1.32,0.47,2.1,1.82,1.86,3.2c-0.95,5.31-1.2,10.56-0.74,15.6
			c3.55,39.1,34.13,55.57,66.51,73.01c22.2,11.96,45.17,24.33,58.62,44.67c8.76,13.23,10.9,30.16,5.59,44.17
			C299.96,374.94,290.3,383.56,277.41,387.02z"/>
	</g>
</g>
</svg>
